<svg width="640" height="200" viewBox="0 0 640 200" fill="none" xmlns="http://www.w3.org/2000/svg">
  <rect width="640" height="200" rx="48" fill="#F8FAFC"/>
  <rect x="32" y="32" width="136" height="136" rx="40" fill="url(#paint0_linear_1_2)"/>
  <rect x="56" y="60" width="88" height="84" rx="22" fill="white" fill-opacity="0.96"/>
  <rect x="72" y="44" width="14" height="28" rx="7" fill="white"/>
  <rect x="114" y="44" width="14" height="28" rx="7" fill="white"/>
  <circle cx="82" cy="92" r="7" fill="#2563EB"/>
  <circle cx="120" cy="92" r="7" fill="#2563EB"/>
  <circle cx="82" cy="122" r="7" fill="#2563EB"/>
  <path d="M116 118L125 127L142 108" stroke="#14B8A6" stroke-width="10" stroke-linecap="round" stroke-linejoin="round"/>
  <path d="M218.852 117.56V82.376H233.06C241.668 82.376 247.236 88.232 247.236 96.808C247.236 105.384 241.668 111.304 233.06 111.304H226.82V117.56H218.852ZM226.82 104.392H232.196C236.164 104.392 239.028 101.64 239.028 96.808C239.028 92.072 236.164 89.288 232.196 89.288H226.82V104.392Z" fill="#0F172A"/>
  <path d="M266.993 118.264C258.001 118.264 251.633 111.88 251.633 102.92C251.633 94.056 257.873 87.544 266.577 87.544C275.537 87.544 281.521 93.912 281.521 103.496V105.672H259.281C259.985 109.832 262.993 112.632 267.185 112.632C270.289 112.632 272.625 111.4 273.969 109.08H281.393C279.249 114.712 273.713 118.264 266.993 118.264ZM259.473 99.96H273.841C273.169 95.96 270.401 93.144 266.577 93.144C262.753 93.144 260.049 95.864 259.473 99.96Z" fill="#0F172A"/>
  <path d="M286.968 117.56V88.248H294.424V92.648C296.28 89.592 299.32 87.736 303.4 87.736H304.936V94.776H302.984C297.96 94.776 294.936 97.576 294.936 102.792V117.56H286.968Z" fill="#0F172A"/>
  <path d="M316.056 117.56L305.704 88.248H313.8L320.168 109.432L326.76 88.248H333.8L340.392 109.4L346.76 88.248H354.824L344.472 117.56H336.376L330.264 97.336L324.152 117.56H316.056Z" fill="#0F172A"/>
  <path d="M371.743 118.264C362.751 118.264 356.383 111.88 356.383 102.92C356.383 94.056 362.623 87.544 371.327 87.544C380.287 87.544 386.271 93.912 386.271 103.496V105.672H364.031C364.735 109.832 367.743 112.632 371.935 112.632C375.039 112.632 377.375 111.4 378.719 109.08H386.143C383.999 114.712 378.463 118.264 371.743 118.264ZM364.223 99.96H378.591C377.919 95.96 375.151 93.144 371.327 93.144C367.503 93.144 364.799 95.864 364.223 99.96Z" fill="#0F172A"/>
  <path d="M404.118 118.264C395.126 118.264 388.758 111.88 388.758 102.92C388.758 94.056 394.998 87.544 403.702 87.544C412.662 87.544 418.646 93.912 418.646 103.496V105.672H396.406C397.11 109.832 400.118 112.632 404.31 112.632C407.414 112.632 409.75 111.4 411.094 109.08H418.518C416.374 114.712 410.838 118.264 404.118 118.264ZM396.598 99.96H410.966C410.294 95.96 407.526 93.144 403.702 93.144C399.878 93.144 397.174 95.864 396.598 99.96Z" fill="#0F172A"/>
  <path d="M438.297 118.264C429.305 118.264 422.937 111.88 422.937 102.92C422.937 94.056 429.209 87.544 437.753 87.544C445.465 87.544 451.449 92.024 452.729 99.224H444.953C443.865 95.672 441.241 93.624 437.753 93.624C432.985 93.624 430.617 97.576 430.617 102.92C430.617 108.36 432.953 112.184 437.753 112.184C441.209 112.184 443.865 110.2 444.953 106.584H452.729C451.449 113.912 445.401 118.264 438.297 118.264Z" fill="#0F172A"/>
  <defs>
    <linearGradient id="paint0_linear_1_2" x1="32" y1="32" x2="168" y2="168" gradientUnits="userSpaceOnUse">
      <stop stop-color="#2563EB"/>
      <stop offset="1" stop-color="#14B8A6"/>
    </linearGradient>
  </defs>
</svg>
